<?xml version="1.0" encoding="UTF-8"?>
<svg width="141px" height="67px" viewBox="0 0 141 67" version="1.1" xmlns="http://www.w3.org/2000/svg" xmlns:xlink="http://www.w3.org/1999/xlink">
    <!-- Generator: Sketch 52.3 (67297) - http://www.bohemiancoding.com/sketch -->
    <title>LOGO</title>
    <desc>Created with Sketch.</desc>
    <defs>
        <polygon id="path-1" points="8.53280699e-06 0.206121212 55.981119 0.206121212 55.981119 18.9760773 8.53280699e-06 18.9760773"></polygon>
    </defs>
    <g id="LOGO" stroke="none" stroke-width="1" fill="none" fill-rule="evenodd">
        <g id="LOGO-2v" transform="translate(0.000000, 1.000000)">
            <path d="M16,13 C16.7278266,14.9178784 16.8884581,17.6668851 16.8884581,20.916568 C16.8884581,27.0834824 16.0814235,34.5847719 16.0814235,38.5841839 C16.0814235,41.8341524 17.4548224,47 21.5758499,47 C22.221976,47 22.6263242,46.8329175 22.7071938,46.5004662 C22.7071938,46.1674437 22.3036765,45.8335643 22.0602368,45.4999706 C21.1715018,43.5838059 21.1715018,41.0847089 21.1715018,40.0850701 C21.1715018,34.1669229 24,20.1679813 24,19.2511697 C24,13.1670825 18.9099218,13 16,13" id="Fill-1" fill="#2CA9E0"></path>
            <path d="M58.9858848,31.907267 C58.9014976,33.7559397 58.5668192,35.1009001 58.0645145,36.0250924 C56.5570264,38.7979574 54.3796073,39.3022456 54.0434937,39.3022456 L53.6261502,39.3022456 C50.1923954,39.3022456 50.1923954,34.763652 50.1923954,34.0926118 C50.1923954,31.823459 51.1134786,29.5545942 52.5368666,28.1261137 C52.5368666,29.3858262 53.2067976,33.0837474 56.6394043,33.0837474 C57.2269573,33.0837474 58.2312797,32.7479393 58.2312797,31.4029789 C58.2312797,30.7310746 57.9801273,30.3105945 57.3945836,30.0583064 C56.6394043,30.0583064 56.0541476,28.882114 56.0541476,27.8726737 C56.0541476,26.8646733 56.4729262,26.3609611 57.2269573,26.3609611 C58.482719,26.6141132 59.3202762,28.2096338 58.9858848,31.907267 M55.8029953,23.2517121 C54.881912,23.2517121 53.8770156,23.5875202 53.2067976,24.9327687 C52.788019,24.0080003 51.6157833,23 50.6108869,23 C48.4328938,23 45,28.882114 45,33.8391717 C45,38.4615733 47.8476371,42.9998788 52.5368666,42.9998788 C53.8770156,42.9998788 61.7488477,43.1672069 62,31.0663068 C62,25.6896329 59.4884765,23.2517121 55.8029953,23.2517121" id="Fill-3" fill="#2CA9E0"></path>
            <path d="M72,12.2322743 C72,7.17907111 67.5426746,6 63.3488836,6 C66.1459422,16.7819759 63,26.2156996 63,36.7453474 C63,40.4520306 64.4853758,45 68.9412039,45 C69.5533225,45 69.9890527,44.8322624 70.0773966,44.4947663 C70.0773966,44.1569815 69.6404685,43.8209289 69.378132,43.4842989 C68.3302832,41.2101698 68.4165308,38.1770354 68.4165308,37.5869224 C68.4165308,31.5218083 72,12.9912796 72,12.2322743" id="Fill-5" fill="#2CA9E0"></path>
            <path d="M82,11.1928582 C82,6.17190095 77.6291086,5 73.5146718,5 C77.2005092,14.1230409 73,24.3350747 73,34.7969802 C73,38.4805073 74.5440154,43 78.9143193,43 C79.5147697,43 79.9424878,42.8324626 80.028854,42.4982485 C80.028854,42.1640344 79.6005484,41.8283859 79.3429187,41.4930243 C78.3153377,39.2338517 78.400235,36.220761 78.400235,35.6355277 C78.400235,29.6919674 82,11.8635815 82,11.1928582" id="Fill-7" fill="#2CA9E0"></path>
            <path d="M87.8601,33.5437807 C87.8601,28.8576878 89.1980433,26.933232 91.1237752,26.933232 C92.4622922,26.933232 93.2161762,28.2723205 93.2161762,29.8615023 C93.2161762,32.8752402 90.2037957,33.9619411 87.9427174,34.6316288 C87.9427174,34.2977887 87.8601,33.9619411 87.8601,33.5437807 M101,34.2143287 C101,33.8790547 100.916522,33.7112743 100.83247,33.7112743 C100.581176,33.7112743 100.162925,33.7958815 100.162925,34.3806751 C100.162925,35.9712909 97.4015521,40.0702957 92.7973518,40.0702957 C92.3793879,40.0702957 89.7846844,40.1549029 89.1145652,37.8951731 C96.9830145,37.8951731 99.1586067,32.2044053 99.1586067,29.7777555 C99.1586067,24.7566754 96.3128954,23 91.6257908,23 C86.0184198,23 82,27.9367597 82,34.3806751 C82,39.7364557 84.9297631,43 90.2867,43 C95.8946447,43 100.581176,41.3264978 101,34.2143287" id="Fill-9" fill="#2CA9E0"></path>
            <path d="M120.025147,58.035278 C119.650988,59.2771435 118.493,60.022377 117.7161,60.3543213 C117.790008,60.1054344 117.730824,60.022377 117.755652,59.939605 C117.930318,59.3599155 118.228259,58.3672223 119.10736,56.2973513 C119.989348,56.4631807 120.323377,57.0428702 120.025147,58.035278 M91.2270189,59.8619705 C90.9287886,58.8672794 91.2622406,58.2878753 92.1450945,58.1220459 C93.0236179,60.1936294 93.3218481,61.1860372 93.4965135,61.764585 C93.5213419,61.847357 93.4624465,61.9304144 93.5363545,62.1790159 C92.7588772,61.847357 91.6014667,61.1021235 91.2270189,59.8619705 M137.902505,20.2270236 C137.71889,20.2270236 135.426299,20.6320356 132.777737,21.0464665 C132.5768,19.2691517 130.614774,19 128.845313,19 L126.981158,19 C127.470798,19.9102066 127.018401,21.7317616 126.731718,22.6419683 C124.101345,30.9811051 120.813884,39.7246832 113.292303,39.7954675 C112.554378,39.8008905 111.80606,39.1615481 111.382244,37.9191118 C111.310357,37.7147505 111.24078,37.5112456 111.186215,37.3240096 C110.715629,35.6896906 110.455796,34.2306199 110.264386,32.5808882 C110.222813,32.0853979 110.195097,31.7457472 110.145729,31.35415 C112.359793,30.9748259 115.35653,30.4956045 116.712857,30.4956045 C116.934581,30.4956045 118.071782,30.4639228 118.926054,30.8389656 C119.05164,30.9317274 119.17867,31.0887088 119.305122,31.0887088 C119.43244,31.0570271 119.493933,30.9009019 119.493933,30.6831259 C119.493933,29.0896221 117.788276,28.526487 116.397593,28.526487 C114.200563,28.526487 112.033269,28.9994292 109.949988,29.1886631 C109.932377,28.9634661 109.919386,28.7702363 109.912746,28.6266697 C109.911013,28.6084028 109.909859,28.5898504 109.908126,28.5715835 C112.220926,28.1916885 115.825673,27.6205617 117.345405,27.6205617 C117.565397,27.6205617 118.704331,27.5885946 119.558314,27.9642082 C119.685055,28.0575408 119.810929,28.2139514 119.937959,28.2139514 C120.063544,28.1828405 120.127348,28.02643 120.127348,27.8083685 C120.127348,26.2148647 118.419381,25.6836968 117.029853,25.6836968 C114.507454,25.6836968 112.15337,26.1409407 109.728264,26.2122959 C109.724223,26.1600639 109.720469,26.1089736 109.716139,26.0558854 C108.807302,22.8985615 106.424058,24.0068501 104.565677,25.1753625 L102.9934,26.1660578 C103.542802,26.8990182 103.997509,28.1831259 104.405158,29.5951022 C105.243551,32.5032538 105.11248,33.1976824 106.046723,36.4366366 C106.740188,38.845302 107.592439,40.9428588 108.794887,42.0931042 C108.832996,42.131636 108.877456,42.1656011 108.917586,42.2024204 C109.461503,42.6830688 110.074997,42.9759105 110.777122,43.0164402 C111.109708,43.071241 111.468278,43.1049207 111.870152,43.1049207 C113.820053,43.1049207 117.612456,42.2709213 119.62154,40.9454276 C119.336013,41.6081744 115.803731,52.0751227 115.604237,52.7372988 C108.976482,54.4749401 103.190584,55.9634091 97.0048328,55.9634091 C96.7149749,55.9634091 96.4438828,55.9574152 96.1852048,55.9485672 C95.7943009,55.1157096 95.3918489,54.399589 95.0122044,53.8267496 C93.8623002,52.0933897 91.2232657,49.9544469 88.6737292,52.599726 C88.5293777,52.7498573 88.3665492,52.9933212 88.058503,53.388058 L88.0411809,53.4819614 C87.9921013,53.5316246 87.9733356,53.6269551 88.0625449,53.7588195 C88.2857123,54.0947597 88.9618548,53.9217947 90.0202402,54.937607 C88.6546748,55.8343989 87.6878083,57.1073753 88.3174697,59.1992237 C89.4402358,62.9245348 93.0675007,64 94.6796185,64 C96.4687112,64 97.7589251,63.0783765 97.9078959,61.571926 C101.569805,61.4686037 106.958736,60.7073867 113.159211,58.0344217 C113.439542,57.9513643 113.657801,57.7861057 113.767509,57.7030483 C113.657801,57.7861057 113.583605,58.0344217 113.484291,58.3657952 C112.786207,60.6831259 114.285442,62.1738783 116.572547,62.1738783 C118.184088,62.1738783 121.81193,61.0995547 122.934696,57.3745291 C123.657609,54.9729992 122.277897,53.6486471 120.604285,52.7372988 C122.017487,49.0605092 129.702761,29.9664345 132.040679,24.0276858 C134.959755,23.7388401 137.86584,23.5518895 141,24.3262359 C141,22.3382806 140.416531,20.2270236 137.902505,20.2270236" id="Fill-11" fill="#2CA9E0"></path>
            <g id="Group-15">
                <mask id="mask-2" fill="white">
                    <use xlink:href="#path-1"></use>
                </mask>
                <g id="Clip-14"></g>
                <path d="M41.3466083,13.7709409 C53.8004833,11.2082439 56.7673167,4.12642576 55.8170667,0.206092424 C45.34915,13.8780318 17.4127333,6.41851667 6.91244167,10.5619561 C3.43519167,11.9328348 -0.860475,13.8659409 0.15015,18.0326985 C0.2884,18.6050015 0.552358333,18.972047 0.903233333,18.9760773 C1.234275,18.8989258 1.619275,18.492153 1.73885833,18.0891227 C2.11598333,16.8207288 4.87048333,15.4435167 5.54773333,15.0971985 C18.5070667,8.47454697 25.70365,16.9925924 41.3466083,13.7709409" id="Fill-13" fill="#2CA9E0" mask="url(#mask-2)"></path>
            </g>
            <path d="M41.7333734,24.1988681 C38.5913565,22.1176355 36.1636071,22.3367277 34.1780371,23.6938422 C33.5210513,20.5585677 29.2965276,20.9664733 27,21.0821608 C28.463313,21.0084636 27.7700879,24.2280043 27.7700879,26.4183545 C27.7700879,30.5751068 27.0704331,35.6313653 27.0704331,38.3273128 C27.0704331,40.517663 28.2604891,44 31.8315341,44 C32.3911995,44 32.7419036,43.8880259 32.8117522,43.6637921 C32.8117522,43.4392726 32.4622171,43.2138962 32.2512101,42.9890911 C31.4811222,41.6971044 31.4811222,40.0126371 31.4811222,39.338793 C31.4811222,37.447802 32.1074214,34.17256 32.7664529,31.18468 C34.3262096,27.5729444 39.1460536,27.5226704 41.9838346,30.448279 L42.0548522,30.5305457 C42.8170492,30.5231189 43.8755912,25.8924762 41.7333734,24.1988681" id="Fill-16" fill="#2CA9E0"></path>
        </g>
    </g>
</svg>