<?xml version="1.0" encoding="UTF-8"?>
<svg width="100px" height="100px" viewBox="0 0 100 100" version="1.1" xmlns="http://www.w3.org/2000/svg" xmlns:xlink="http://www.w3.org/1999/xlink">
    <!-- Generator: Sketch 50.2 (55047) - http://www.bohemiancoding.com/sketch -->
    <title>Icons/Mega/Strore_added</title>
    <desc>Created with Sketch.</desc>
    <defs></defs>
    <g id="Icons/Mega/Strore_added" stroke="none" stroke-width="1" fill="none" fill-rule="evenodd">
        <g id="Group" transform="translate(6.666667, 6.666667)" fill-rule="nonzero">
            <g id="Capa_1">
                <g id="Group" transform="translate(0.000000, 10.156250)">
                    <rect id="Rectangle-path" fill="#FFE1B2" x="5.41666667" y="12.1875" width="75.8333333" height="52.8125"></rect>
                    <rect id="Rectangle-path" fill="#FFB980" x="5.41666667" y="56.875" width="75.8333333" height="8.125"></rect>
                    <rect id="Rectangle-path" fill="#FFB980" x="5.41666667" y="9.47916667" width="75.8333333" height="9.47916667"></rect>
                    <path d="M32.5,21.6666667 L13.5416667,21.6666667 C12.7938281,21.6666667 12.1875,22.2729948 12.1875,23.0208333 L12.1875,63.6458333 L33.8541667,63.6458333 L33.8541667,23.0208333 C33.8541667,22.2729948 33.2478385,21.6666667 32.5,21.6666667 Z" id="Shape" fill="#7E5C62"></path>
                    <path d="M85.3125,66.3541667 L1.35416667,66.3541667 C0.605651042,66.3541667 0,65.7485156 0,65 C0,64.2514844 0.605651042,63.6458333 1.35416667,63.6458333 L85.3125,63.6458333 C86.0610156,63.6458333 86.6666667,64.2514844 86.6666667,65 C86.6666667,65.7485156 86.0610156,66.3541667 85.3125,66.3541667 Z" id="Shape" fill="#5C546A"></path>
                    <path d="M29.7916667,47.3958333 C29.043151,47.3958333 28.4375,46.7901823 28.4375,46.0416667 L28.4375,43.3333333 C28.4375,42.5848177 29.043151,41.9791667 29.7916667,41.9791667 C30.5401823,41.9791667 31.1458333,42.5848177 31.1458333,43.3333333 L31.1458333,46.0416667 C31.1458333,46.7901823 30.5401823,47.3958333 29.7916667,47.3958333 Z" id="Shape" fill="#5C546A"></path>
                    <path d="M6.77083333,16.25 C4.52714844,16.25 2.70833333,14.4311849 2.70833333,12.1875 L2.70833333,2.70833333 C2.70833333,1.21248698 3.92082031,0 5.41666667,0 L10.8333333,0 L10.8333333,12.1875 C10.8333333,14.4311849 9.01451823,16.25 6.77083333,16.25 Z" id="Shape" fill="#FF4F19"></path>
                    <path d="M14.8958333,16.25 C12.6521484,16.25 10.8333333,14.4311849 10.8333333,12.1875 L10.8333333,0 L18.9583333,0 L18.9583333,12.1875 C18.9583333,14.4311849 17.1395182,16.25 14.8958333,16.25 Z" id="Shape" fill="#E9001E"></path>
                    <path d="M23.0208333,16.25 C20.7771484,16.25 18.9583333,14.4311849 18.9583333,12.1875 L18.9583333,0 L27.0833333,0 L27.0833333,12.1875 C27.0833333,14.4311849 25.2645182,16.25 23.0208333,16.25 Z" id="Shape" fill="#FF4F19"></path>
                    <path d="M31.1458333,16.25 C28.9021484,16.25 27.0833333,14.4311849 27.0833333,12.1875 L27.0833333,0 L35.2083333,0 L35.2083333,12.1875 C35.2083333,14.4311849 33.3895182,16.25 31.1458333,16.25 Z" id="Shape" fill="#E9001E"></path>
                    <path d="M39.2708333,16.25 C37.0271484,16.25 35.2083333,14.4311849 35.2083333,12.1875 L35.2083333,0 L43.3333333,0 L43.3333333,12.1875 C43.3333333,14.4311849 41.5145182,16.25 39.2708333,16.25 Z" id="Shape" fill="#FF4F19"></path>
                    <path d="M47.3958333,16.25 C45.1521484,16.25 43.3333333,14.4311849 43.3333333,12.1875 L43.3333333,0 L51.4583333,0 L51.4583333,12.1875 C51.4583333,14.4311849 49.6395182,16.25 47.3958333,16.25 Z" id="Shape" fill="#E9001E"></path>
                    <path d="M55.5208333,16.25 C53.2771484,16.25 51.4583333,14.4311849 51.4583333,12.1875 L51.4583333,0 L59.5833333,0 L59.5833333,12.1875 C59.5833333,14.4311849 57.7645182,16.25 55.5208333,16.25 Z" id="Shape" fill="#FF4F19"></path>
                    <path d="M63.6458333,16.25 C61.4021484,16.25 59.5833333,14.4311849 59.5833333,12.1875 L59.5833333,0 L67.7083333,0 L67.7083333,12.1875 C67.7083333,14.4311849 65.8895182,16.25 63.6458333,16.25 Z" id="Shape" fill="#E9001E"></path>
                    <path d="M71.7708333,16.25 C69.5271484,16.25 67.7083333,14.4311849 67.7083333,12.1875 L67.7083333,0 L75.8333333,0 L75.8333333,12.1875 C75.8333333,14.4311849 74.0145182,16.25 71.7708333,16.25 Z" id="Shape" fill="#FF4F19"></path>
                    <path d="M79.8958333,16.25 C77.6521484,16.25 75.8333333,14.4311849 75.8333333,12.1875 L75.8333333,0 L81.25,0 C82.7458464,0 83.9583333,1.21248698 83.9583333,2.70833333 L83.9583333,12.1875 C83.9583333,14.4311849 82.1395182,16.25 79.8958333,16.25 Z" id="Shape" fill="#E9001E"></path>
                    <path d="M74.4791667,23.0208333 L40.625,23.0208333 C39.8771615,23.0208333 39.2708333,23.6271615 39.2708333,24.375 L39.2708333,51.4583333 C39.2708333,52.2061719 39.8771615,52.8125 40.625,52.8125 L74.4791667,52.8125 C75.2270052,52.8125 75.8333333,52.2061719 75.8333333,51.4583333 L75.8333333,24.375 C75.8333333,23.6271615 75.2270052,23.0208333 74.4791667,23.0208333 Z" id="Shape" fill="#53DCFF"></path>
                    <path d="M67.3000521,52.8125 L74.4791667,52.8125 C75.2270052,52.8125 75.8333333,52.2061719 75.8333333,51.4583333 L75.8333333,49.8553385 L48.9988281,23.0208333 L39.2708333,23.0208333 C38.7909505,23.0208333 38.3894401,23.2848958 38.1489063,23.6613542 L67.3000521,52.8125 Z" id="Shape" fill="#B3F4FF"></path>
                    <polygon id="Shape" fill="#FFFFFF" points="56.5464453 23.0208333 75.8333333 42.3077214 75.8333333 36.5625 62.2916667 23.0208333"></polygon>
                    <path d="M74.4791667,54.1666667 L40.625,54.1666667 C39.1320313,54.1666667 37.9166667,52.9513021 37.9166667,51.4583333 L37.9166667,24.375 C37.9166667,22.8820313 39.1320313,21.6666667 40.625,21.6666667 L74.4791667,21.6666667 C75.9721354,21.6666667 77.1875,22.8820313 77.1875,24.375 L77.1875,51.4583333 C77.1875,52.9513021 75.9721354,54.1666667 74.4791667,54.1666667 Z M40.625,24.375 L40.625,51.4583333 L74.481875,51.4583333 L74.4791667,24.375 L40.625,24.375 Z" id="Shape" fill="#7E5C62"></path>
                    <path d="M29.7916667,39.2708333 L16.25,39.2708333 C15.5021615,39.2708333 14.8958333,38.6645052 14.8958333,37.9166667 L14.8958333,25.7291667 C14.8958333,24.9813281 15.5021615,24.375 16.25,24.375 L29.7916667,24.375 C30.5395052,24.375 31.1458333,24.9813281 31.1458333,25.7291667 L31.1458333,37.9166667 C31.1458333,38.6645052 30.5395052,39.2708333 29.7916667,39.2708333 Z" id="Shape" fill="#53DCFF"></path>
                    <path d="M23.0375911,24.375 L16.25,24.375 C15.5021615,24.375 14.8958333,24.9813281 14.8958333,25.7291667 L14.8958333,27.7238542 L26.4428125,39.2708333 L29.7916667,39.2708333 C30.5395052,39.2708333 31.1458333,38.6645052 31.1458333,37.9166667 L31.1458333,32.4832422 L23.0375911,24.375 Z" id="Shape" fill="#B3F4FF"></path>
                </g>
            </g>
        </g>
    </g>
</svg>