<?xml version="1.0" encoding="UTF-8"?>
<svg width="219px" height="73px" viewBox="0 0 219 73" version="1.1" xmlns="http://www.w3.org/2000/svg" xmlns:xlink="http://www.w3.org/1999/xlink">
    <!-- Generator: Sketch 51 (57462) - http://www.bohemiancoding.com/sketch -->
    <title>Logo/White</title>
    <desc>Created with Sketch.</desc>
    <defs></defs>
    <g id="Logo/White" stroke="none" stroke-width="1" fill="none" fill-rule="evenodd">
        <g id="LOGO" transform="translate(39.000000, 3.000000)" fill="#FFFFFF">
            <path d="M21.5507161,42.277 C21.5507161,43.3360963 21.5507161,45.9833407 22.5155308,48.0136889 C22.7792895,48.3670519 23.2170797,48.7204148 23.2170797,49.0732815 C23.1298175,49.4256519 22.6910413,49.6033259 21.9894923,49.6033259 C17.5169329,49.6033259 16.0260797,44.1296741 16.0260797,40.687363 C16.0260797,36.4504815 16.9021531,28.5027926 16.9021531,21.9705407 C16.9021531,18.527237 16.7281217,15.6149704 15.9378315,13.5841259 C19.0960343,13.5841259 24.6201776,13.7608074 24.6201776,20.2057111 C24.6201776,21.176963 21.5507161,36.0072889 21.5507161,42.277" id="Fill-1"></path>
            <path d="M34.0951804,38.2528311 C35.6742818,38.2528311 40.4963832,35.0745496 40.4963832,32.1617867 C40.4963832,30.3076237 39.5315685,30.1314385 38.2172119,30.1314385 C35.7625301,30.1314385 34.4462014,32.4263126 33.4828657,37.4582607 C33.4828657,37.9883052 33.6559112,38.2528311 34.0951804,38.2528311 Z M53.7400301,46.1096978 C54.7038587,46.1096978 55.9324322,50.6989496 53.3895021,52.8206163 C42.1632399,59.1761867 38.0417014,45.8451719 33.4828657,40.9015644 C32.4283238,41.0782459 32.1670301,45.4928015 33.3941245,46.1980385 C33.3063692,46.2853867 33.1308587,46.2853867 32.868086,46.3742237 C32.6053133,46.4640533 32.0787818,46.4640533 31.2904636,46.4640533 C29.7986245,46.4640533 27.6944706,44.8744163 27.6944706,42.4912015 C27.9572434,39.0488904 29.7103762,25.010157 27.6052364,22.0095496 C28.0449986,22.0095496 28.921565,21.9217052 29.8863797,21.9217052 C32.2537993,21.9217052 35.1477503,22.450757 35.1477503,25.9814089 C35.0599951,26.0692533 35.0599951,26.0692533 35.0599951,26.1585867 C35.0599951,26.2474237 34.9727329,26.4236089 34.9727329,26.6876385 C36.9896245,25.7163867 39.0952573,25.1878311 41.1111629,25.1878311 C44.2688727,25.1878311 46.1092678,26.5114533 46.1092678,29.9532681 C46.1092678,33.30972 44.9709147,36.6641867 37.6911734,39.4891052 C42.7775266,44.7845867 48.1281315,51.0538015 53.6522748,46.1980385 L53.7400301,46.1096978 Z" id="Fill-3"></path>
            <path d="M63.1517801,32.5647793 C63.1517801,33.9782311 62.1001962,34.3315941 61.4854164,34.3315941 C57.8909024,34.3315941 57.1893535,30.4455941 57.1893535,29.1219719 C55.6994864,30.6232681 54.7346717,33.0069793 54.7346717,35.3906904 C54.7346717,36.0954311 54.7346717,40.8643422 58.3306647,40.8643422 L58.7664829,40.8643422 C59.1189829,40.8643422 61.3986472,40.3342978 62.9772556,37.4210385 C63.5037871,36.4497867 63.854315,35.0368311 63.9425633,33.0948237 C64.2925983,29.2103126 63.4155388,27.5333274 62.1001962,27.2678089 C61.311385,27.2678089 60.8721157,27.797357 60.8721157,28.855957 C60.8721157,29.9165422 61.4854164,31.1518237 62.2766927,31.1518237 C62.8895003,31.4168459 63.1517801,31.8585496 63.1517801,32.5647793 M60.609836,24.0011867 C64.4690948,24.0011867 67.0992871,26.5620756 67.0992871,32.2114163 C66.8365143,44.9245422 58.5929444,44.7488533 57.1893535,44.7488533 C52.2785108,44.7488533 49.2972976,39.9804385 49.2972976,35.1246756 C49.2972976,29.9165422 52.8918115,23.737157 55.1719689,23.737157 C56.2245388,23.737157 57.4521262,24.7967496 57.8909024,25.7675052 C58.5929444,24.3545496 59.6455143,24.0011867 60.609836,24.0011867" id="Fill-5"></path>
            <path d="M77.7316238,12.0831274 C77.7316238,12.8786904 74.1346448,32.2992607 74.1346448,38.6558237 C74.1346448,39.2742089 74.0478755,42.4524904 75.0994594,44.8362015 C75.3622322,45.1890681 75.8019944,45.5414385 75.8019944,45.8952978 C75.7127601,46.249157 75.2759559,46.4248459 74.6606832,46.4248459 C70.1886168,46.4248459 68.6987497,41.6584163 68.6987497,37.7739052 C68.6987497,26.7382607 71.8554734,16.8515422 69.0492776,5.55137185 C73.2580783,5.55137185 77.7316238,6.78714963 77.7316238,12.0831274" id="Fill-7"></path>
            <path d="M87.528215,11.1123222 C87.528215,11.8195444 83.8444668,30.6232185 83.8444668,36.8914407 C83.8444668,37.5093296 83.7586836,40.6871148 84.8092815,43.0698333 C85.0735332,43.4231963 85.5108304,43.7775519 85.5108304,44.1299222 C85.4225822,44.4822926 84.985778,44.6594704 84.3709983,44.6594704 C79.8984388,44.6594704 78.3193374,39.8925444 78.3193374,36.007537 C78.3193374,24.9728852 82.6168794,14.2027593 78.8468549,4.58056667 C83.0566416,4.58056667 87.528215,5.81684074 87.528215,11.1123222" id="Fill-9"></path>
            <path d="M99.8432832,30.7986593 C99.8432832,29.1226667 99.052993,27.7097111 97.6513741,27.7097111 C95.6339895,27.7097111 94.2313846,29.7400593 94.2313846,34.6836667 C94.2313846,35.1248741 94.3181538,35.4787333 94.3181538,35.8311037 C96.6875455,35.1248741 99.8432832,33.9779333 99.8432832,30.7986593 M96.7733287,44.6597185 C91.1614301,44.6597185 88.0909825,41.2169111 88.0909825,35.5665778 C88.0909825,28.7683111 92.3017552,23.5601778 98.1764266,23.5601778 C103.087762,23.5601778 106.069962,25.4133481 106.069962,30.7103185 C106.069962,33.2707111 103.789804,39.2744074 95.5457413,39.2744074 C96.2477832,41.6581185 98.9667168,41.5687852 99.404014,41.5687852 C104.229073,41.5687852 107.122038,37.2445556 107.122038,35.5665778 C107.122038,34.9496815 107.559829,34.8603481 107.823587,34.8603481 C107.911343,34.8603481 107.998605,35.0375259 107.998605,35.3908889 C107.559829,42.8943926 102.648986,44.6597185 96.7733287,44.6597185" id="Fill-11"></path>
            <path d="M127.226814,60.3292815 C126.836846,61.6459556 125.631444,62.4360593 124.821926,62.787437 C124.898835,62.5239037 124.837209,62.4360593 124.863339,62.3477185 C125.045258,61.7333037 125.35536,60.6811556 126.271367,58.4865333 C127.189346,58.6627185 127.537409,59.2771333 127.226814,60.3292815 M97.2450871,62.2658296 C96.9344927,61.2112 97.2815696,60.5972815 98.2010276,60.4210963 C99.1150626,62.6167111 99.425164,63.6693556 99.6080696,64.2827778 C99.6332129,64.3701259 99.5715871,64.4584667 99.6489892,64.722 C98.8394717,64.3701259 97.6350556,63.5800222 97.2450871,62.2658296 M136.40907,18.9485926 L134.468101,18.9485926 C134.978363,19.9133926 134.507542,21.8439852 134.208779,22.8087852 C131.469633,31.6488148 128.047178,40.9181407 120.216255,40.9930815 C119.449136,40.999037 118.670185,40.3215926 118.227958,39.0044222 C118.1545,38.7870444 118.080549,38.5721481 118.024346,38.3731333 C117.534297,36.6415556 117.263143,35.0941037 117.064954,33.3451556 C117.011709,32.7098963 116.981636,32.3178222 116.90522,31.7748741 C116.872188,31.4026519 116.842115,31.0076 116.809577,30.6100667 C116.75436,30.0060741 116.713933,29.4680889 116.69865,29.1529407 C116.637024,28.3127111 116.571454,27.4283111 116.493559,26.4282741 C115.547972,23.0807556 113.065681,24.2559852 111.132108,25.4947407 L109.494339,26.5449037 C110.066227,27.3216074 110.540007,28.6829481 110.965472,30.1797778 C111.837108,33.2627704 111.701038,33.9987778 112.673248,37.4326519 C113.39501,39.9856 114.28193,42.2095037 115.533674,43.4289037 C115.574101,43.4700963 115.620937,43.5063259 115.662349,43.545037 C116.227828,44.0547333 116.866765,44.3649185 117.598881,44.4076 C117.945465,44.466163 118.318178,44.5018963 118.735755,44.5018963 C120.765958,44.5018963 124.713958,43.6174963 126.805786,42.2124815 C126.509489,42.9147407 122.831164,54.0109333 122.623608,54.7131926 C115.723975,56.5549481 109.69943,58.1331704 103.260265,58.1331704 C102.958052,58.1331704 102.676052,58.1262222 102.406377,58.1167926 C101.999647,57.2338815 101.580098,56.4750444 101.185692,55.8675778 C99.988178,54.0297926 97.241143,51.7627111 94.5872864,54.5667852 C94.4359332,54.7260963 94.2668318,54.9841704 93.9453913,55.4030444 L93.928629,55.5023037 C93.8768633,55.5549111 93.857636,55.6556593 93.9508143,55.7956148 C94.1830206,56.1519556 94.8860486,55.9683259 95.9889052,57.0452889 C94.5670731,57.9961926 93.5608458,59.3456222 94.2155591,61.5630741 C95.3839857,65.5121037 99.1604192,66.6525926 100.839601,66.6525926 C102.702181,66.6525926 104.045133,65.6748889 104.199937,64.0783037 C108.01236,63.9686222 113.622779,63.1621407 120.078213,60.3282889 C120.371059,60.2404444 120.597842,60.0647556 120.711234,59.9774074 C120.597842,60.0647556 120.519454,60.3282889 120.416909,60.6796667 C119.690216,63.1363333 121.251077,64.7165407 123.6323,64.7165407 C125.309017,64.7165407 129.086437,63.5775407 130.255849,59.6285111 C131.008671,57.0830074 129.572049,55.6789852 127.829762,54.7131926 C129.452248,50.4137778 139.018556,26.232237 140.297909,22.8097778 C141.309559,19.3878148 138.702538,18.9485926 136.40907,18.9485926" id="Fill-13"></path>
            <path d="M111.734661,29.2457978 C115.320794,30.6691756 119.335843,29.0472793 123.449986,29.0472793 C124.896962,29.0472793 126.673266,29.6443237 126.673266,31.33322 C126.673266,31.5644941 126.609668,31.730257 126.476063,31.7630126 C126.345909,31.7630126 126.212305,31.5967533 126.082644,31.4984867 C125.193259,31.100457 124.008563,31.1347015 123.778329,31.1347015 C121.441476,31.1347015 114.432888,32.5248274 114.168637,32.5248274 C112.195623,32.5248274 111.734661,30.8359311 111.734661,29.2457978 M112.097021,26.165783 C116.30878,27.2253756 119.993514,26.0327756 124.108151,26.0327756 C125.554633,26.0327756 127.333402,26.5960719 127.333402,28.2854644 C127.333402,28.5167385 127.266847,28.6825015 127.135214,28.7157533 C127.003581,28.7157533 126.871948,28.5504867 126.740315,28.4507311 C125.851423,28.0531978 124.665742,28.0864496 124.436493,28.0864496 C122.067595,28.0864496 114.827294,29.4448126 114.532969,29.4448126 C112.556997,29.4448126 112.097021,27.75542 112.097021,26.165783" id="Fill-15"></path>
            <path d="M42.608721,14.2577985 C26.4878853,17.6440281 19.0715811,8.69084296 5.71700769,15.6518948 C5.01890979,16.01568 2.18116154,17.46288 1.79168601,18.7964281 C1.66843427,19.2202652 1.27205664,19.6475763 0.930895804,19.7284726 C0.569521678,19.7245022 0.297381818,19.3383837 0.154902797,18.7368726 C-0.886820979,14.3575541 3.53988881,12.325717 7.12306364,10.8849689 C17.9445671,6.53046519 46.7332175,14.3704578 57.5202105,0.000198518519 C58.4993224,4.12094667 55.442186,11.5639022 42.608721,14.2577985" id="Fill-17"></path>
        </g>
    </g>
</svg>